<svg xmlns="http://www.w3.org/2000/svg" version="1.1" xmlns:xlink="http://www.w3.org/1999/xlink" xmlns:svgjs="http://svgjs.dev/svgjs" width="1000" height="1000" viewBox="0 0 1000 1000"><rect width="1000" height="1000" fill="#ffffff"></rect><g transform="matrix(0.7,0,0,0.7,149.57575757575756,282.1265587044535)"><svg viewBox="0 0 396 247" data-background-color="#ffffff" preserveAspectRatio="xMidYMid meet" height="623" width="1000" xmlns="http://www.w3.org/2000/svg" xmlns:xlink="http://www.w3.org/1999/xlink"><g id="tight-bounds" transform="matrix(1,0,0,1,0.2400000000000091,-0.09999999999999432)"><svg viewBox="0 0 395.52 247.2" height="247.2" width="395.52"><g><svg></svg></g><g><svg viewBox="0 0 395.52 247.2" height="247.2" width="395.52"><g transform="matrix(1,0,0,1,75.54432,84.27534454436656)"><svg viewBox="0 0 244.43135999999998 78.64931091126688" height="78.64931091126688" width="244.43135999999998"><g><svg viewBox="0 0 244.43135999999998 78.64931091126688" height="78.64931091126688" width="244.43135999999998"><g><svg viewBox="0 0 244.43135999999998 78.64931091126688" height="78.64931091126688" width="244.43135999999998"><g><svg viewBox="0 0 244.43135999999998 78.64931091126688" height="78.64931091126688" width="244.43135999999998"><g><svg viewBox="0 0 244.43135999999998 78.64931091126688" height="78.64931091126688" width="244.43135999999998"><g><svg viewBox="0 0 244.43135999999998 78.64931091126688" height="78.64931091126688" width="244.43135999999998"><g transform="matrix(1,0,0,1,0,0)"><svg width="244.43135999999998" viewBox="1.68 -35.55 142.79 45.949999999999996" height="78.64931091126688" data-palette-color="#0e47ae"><path d="M1.68-13.11L1.68-13.4Q1.68-19.48 4.58-23.19 7.47-26.9 12.38-26.9L12.38-26.9Q16.72-26.9 19.14-23.93L19.14-23.93 19.43-26.42 25.83-26.42 25.83-0.88Q25.83 2.59 24.26 5.15 22.68 7.71 19.82 9.06 16.97 10.4 13.13 10.4L13.13 10.4Q10.23 10.4 7.47 9.24 4.71 8.08 3.3 6.25L3.3 6.25 6.42 1.95Q9.06 4.91 12.82 4.91L12.82 4.91Q15.63 4.91 17.19 3.41 18.75 1.9 18.75-0.85L18.75-0.85 18.75-2.27Q16.31 0.49 12.33 0.49L12.33 0.49Q7.57 0.49 4.63-3.23 1.68-6.96 1.68-13.11L1.68-13.11ZM8.74-12.89L8.74-12.89Q8.74-9.3 10.18-7.26 11.62-5.22 14.14-5.22L14.14-5.22Q17.36-5.22 18.75-7.64L18.75-7.64 18.75-18.75Q17.33-21.17 14.18-21.17L14.18-21.17Q11.65-21.17 10.19-19.09 8.74-17.02 8.74-12.89ZM51.88-22.24L39.35-5.69 52.27-5.69 52.27 0 30.34 0 30.34-4.3 42.77-20.7 30.71-20.7 30.71-26.42 51.88-26.42 51.88-22.24ZM61.66-26.42L66.57-8.62 71.48-26.42 78.85-26.42 69.94 0 63.2 0 54.29-26.42 61.66-26.42ZM102.68 0L93.55-14.26 89.74-10.16 89.74 0 82.41 0 82.41-35.55 89.74-35.55 89.74-19.43 92.96-23.85 102.02-35.55 111.03-35.55 98.41-19.75 111.39 0 102.68 0ZM136.68 0L134.22-7.32 121.38-7.32 118.94 0 111.15 0 124.38-35.55 131.17-35.55 144.47 0 136.68 0ZM127.77-26.56L123.35-13.26 132.24-13.26 127.77-26.56Z" opacity="1" transform="matrix(1,0,0,1,0,0)" fill="#0e47ae" class="undefined-text-0" data-fill-palette-color="primary" id="text-0"></path></svg></g></svg></g></svg></g></svg></g></svg></g></svg></g></svg></g><g><path d="M245.816 0c68.262 0 123.6 55.338 123.6 123.6 0 68.262-55.338 123.6-123.6 123.6-51.005 0-94.794-30.895-113.675-74.992h3.869c18.658 42.087 60.804 71.445 109.806 71.446 66.304 0 120.054-53.75 120.053-120.054 0-66.304-53.75-120.054-120.053-120.054-49.002 0-91.147 29.358-109.806 71.446l-3.869 0c18.881-44.097 62.67-74.992 113.675-74.992z" fill="#fddc09" stroke="transparent" data-fill-palette-color="tertiary"></path></g></svg></g><defs></defs></svg><rect width="395.52" height="247.2" fill="none" stroke="none" visibility="hidden"></rect></g></svg></g></svg>